<svg xmlns="http://www.w3.org/2000/svg" viewBox="0 0 24 24" role="img" aria-labelledby="ghTitle" fill="#000000">
  <title id="ghTitle">GitHub icon</title>
  <path d="M12 0C5.37 0 0 5.37 0 12c0 5.3 3.438 9.8 8.206 11.387.6.113.82-.262.82-.58 0-.287-.01-1.243-.015-2.25-3.338.724-4.042-1.614-4.042-1.614-.546-1.387-1.333-1.757-1.333-1.757-1.09-.744.083-.73.083-.73 1.205.085 1.84 1.238 1.84 1.238 1.07 1.835 2.807 1.305 3.492.997.108-.775.418-1.305.76-1.605-2.665-.305-5.466-1.335-5.466-5.932 0-1.31.468-2.38 1.235-3.22-.123-.304-.536-1.53.117-3.188 0 0 1.008-.323 3.3 1.23A11.48 11.48 0 0112 5.8c1.02.005 2.046.138 3.003.405 2.29-1.553 3.296-1.23 3.296-1.23.655 1.659.242 2.884.12 3.188.77.84 1.233 1.91 1.233 3.22 0 4.61-2.804 5.625-5.476 5.92.43.37.81 1.096.81 2.207 0 1.595-.014 2.877-.014 3.268 0 .32.216.697.825.578C20.565 21.796 24 17.297 24 12c0-6.63-5.37-12-12-12z"/>
</svg>